<svg id="AddEmployee" xmlns="http://www.w3.org/2000/svg" width="23.083" height="20.068" viewBox="0 0 23.083 20.068">
  <path id="Path_1966" data-name="Path 1966" d="M597.4,380.341h-3.2v-3.03a1.081,1.081,0,0,0-2.163,0v3.03h-3.2a1.081,1.081,0,1,0,0,2.163h3.2v3.372a1.081,1.081,0,1,0,2.163,0V382.5h3.2a1.081,1.081,0,0,0,0-2.163Z" transform="translate(-575.396 -366.891)" fill="#333"/>
  <path id="Path_1967" data-name="Path 1967" d="M590.546,372.683a5.792,5.792,0,1,0-9.541,4.4,9.423,9.423,0,0,0-5.609,8.563,1.13,1.13,0,1,0,2.261,0,7.1,7.1,0,0,1,7.1-7.1,6.28,6.28,0,0,0,3.414-1.2A5.816,5.816,0,0,0,590.546,372.683Zm-2.261,0a3.53,3.53,0,1,1-3.53-3.531A3.535,3.535,0,0,1,588.285,372.683Z" transform="translate(-575.396 -366.891)" fill="#333"/>
</svg>
