<svg id="KPA_Logl" data-name="KPA Logl" xmlns="http://www.w3.org/2000/svg" width="135.458" height="30.957" viewBox="0 0 135.458 30.957">
  <g id="Group_1973" data-name="Group 1973" transform="translate(8.936 6.623)">
    <g id="Group_1972" data-name="Group 1972" transform="translate(0 5.346)">
      <path id="Path_1948" data-name="Path 1948" d="M153.386,794.949c.159-.173.309-.379.309-.379l.73-1.123-2.1-3.3a2,2,0,0,0-2.757-.606h0a2,2,0,0,0-.606,2.757l1.671,2.637A2.164,2.164,0,0,0,153.386,794.949Z" transform="translate(-148.646 -789.226)" fill="#fff"/>
    </g>
    <path id="Path_1949" data-name="Path 1949" d="M152.98,801.687" transform="translate(-150.994 -790.632)" fill="#fff" stroke="#ff3131" stroke-miterlimit="10" stroke-width="1"/>
    <path id="Path_1950" data-name="Path 1950" d="M152.98,788.612a2.164,2.164,0,0,0,2.755.014c.159-.173.309-.379.309-.379l6.291-9.8a2,2,0,0,1,2.767-.557h0a2,2,0,0,1,.557,2.767l-7.213,11.215a2,2,0,0,1-2.767.557h0a2.809,2.809,0,0,1-.8-.9l-1.9-2.917" transform="translate(-150.994 -777.557)" fill="#fff"/>
  </g>
  <path id="Path_1951" data-name="Path 1951" d="M155.052,773.222l-2.25,3.494a10.367,10.367,0,1,1-5.605-6.035l1.926-2.991a13.807,13.807,0,0,0-5.106-1.368V765.4h.8a1.114,1.114,0,0,0,1.114-1.113v-.07a1.114,1.114,0,0,0-1.114-1.114h-3.758a1.114,1.114,0,0,0-1.114,1.114v.07a1.113,1.113,0,0,0,1.114,1.113h.7v.945a13.889,13.889,0,1,0,13.3,6.879Z" transform="translate(-129.141 -763.101)" fill="#fff"/>
  <text id="KPA" transform="translate(30.259 23.117)" fill="#fff" font-size="22" font-family="Roboto-Medium, Roboto" font-weight="500" letter-spacing="-0.05em"><tspan x="0" y="0">KPA</tspan></text>
  <text id="Tracker" transform="translate(68.458 22.423)" fill="#fff" font-size="22" font-family="Roboto-Regular, Roboto" letter-spacing="-0.05em"><tspan x="0" y="0">Tracker</tspan></text>
</svg>
